<mxfile host="app.diagrams.net" modified="2023-04-24T05:39:07.452Z" agent="Mozilla/5.0 (Windows NT 10.0; Win64; x64) AppleWebKit/537.36 (KHTML, like Gecko) Chrome/112.0.0.0 Safari/537.36" version="21.2.1" etag="46rdSkZK3AUPfA179lFp" type="github">
  <diagram name="Page-1" id="vj7IbCrMPia0O9hADpIl">
    <mxGraphModel>
      <root>
        <mxCell id="0" />
        <mxCell id="1" parent="0" />
      </root>
    </mxGraphModel>
  </diagram>
</mxfile>
